<?xml version="1.0" encoding="UTF-8" standalone="no"?>
<svg width="407.97827mm" height="518.05493mm" viewBox="0 0 1541.9652 1958.0029"
    version="1.1" baseProfile="full" xmlns="http://www.w3.org/2000/svg">
    <g transform="translate(560.01213,256.77643)">
    <path fill="#AA4422" width="100%" height="100%"
    d="m -330.94096,1701.2266 c -174.42342,0 -226.89953,-180.5717 -226.89953,-302.6219 l -2.17164,-661.45414 c 0,-182.13701 90.68895,-271.84368 220.36927,-271.84368 129.68032,0 234.73023,78.76347 234.73023,289.0442 l 0.4617,644.14612 c 0,126.6493 -52.06661,302.7294 -226.49003,302.7294 z m -63.63755,-139.3872 c 0,0 38.87455,9.6026 58.31183,10.2421 21.17298,0.6965 63.51895,-6.2342 63.51895,-6.2342 l -32.50724,-117.0817 c 0,0 39.41288,-21.8266 38.70997,-62.4655 -0.70291,-40.6389 -35.96421,-69.0369 -68.5683,-69.1132 -32.60409,-0.076 -67.55974,32.1427 -67.55974,68.4971 0,36.3544 39.6766,62.9884 39.6766,62.9884 z m 168.4285,-819.02674 C -237.1166,636.62542 -264.3684,592.91754 -338.93033,592.91754 c -74.56193,0 -106.4797,71.77967 -102.43094,146.33379 l -4.80303,500.88147 h 224.12694 z M 185.45864,1692.5558 C 151.58384,1686.6826 116.3448,1674.6811 81.61185,1646.5022 46.878898,1618.3232 16.030227,1554.245 0.32449017,1496.1038 -15.381247,1437.9626 -10.037349,1348.0228 -10.037349,1348.0228 l 108.495764,2.9462 c 0,0 -3.353232,63.8164 11.178495,108.7383 14.53173,44.9219 40.2404,87.4022 91.89977,93.3107 51.65937,5.9085 100.57204,-25.6228 113.01602,-69.9416 14.28105,-50.7114 14.5807,-105.275 -23.38743,-184.6057 C 253.19714,1219.1399 162.24391,1105.4196 98.255064,1021.1062 34.266213,936.79268 10.523112,884.93796 -0.91472639,808.31629 -12.352565,731.69462 6.1291838,651.51718 21.282326,615.70461 36.435467,579.89204 63.494983,536.11009 107.49373,505.70007 c 43.99875,-30.41002 97.80829,-32.30269 146.92346,-25.86737 49.11516,6.43532 99.1048,51.16247 123.2395,99.98371 24.1347,48.82124 46.02063,122.65248 37.63929,190.98299 -0.0891,0.72612 -98.6667,0 -98.6667,0 2.75972,-56.37737 -6.73044,-124.77146 -50.40105,-156.34836 -43.67061,-31.5769 -104.21251,-14.2945 -132.70795,24.77571 -28.49543,39.07022 -40.814149,96.81953 -8.26809,173.92271 32.54606,77.10318 205.46183,269.12184 255.71583,378.44094 50.254,109.3191 83.18486,233.1052 51.86693,327.8037 -31.31793,94.6986 -82.5623,137.4568 -120.4334,156.3938 -37.8711,18.9369 -93.0681,22.6411 -126.94291,16.7679 z m 344.9345,-334.0968 1.89067,-891.6596 h 112.34836 l 7.3284,900.1635 c 0,0 -13.04922,169.2222 99.9525,169.2222 113.00172,0 109.66318,-167.5332 109.66318,-167.5332 l 8.38867,-901.88209 111.68166,0.69626 -0.4269,899.46983 c 0,0 22.13542,329.5619 -225.15857,329.5619 -247.29397,0 -225.66797,-338.0388 -225.66797,-338.0388 z m -1090.1863,-1118.50752 1.56749,-306.753454 c 0,-108.960336 36.60034,-189.974456 181.52942,-189.974456 144.92908,0 179.8463,92.72527 182.63492,190.746588 l 1.5771,312.540882 c 1.05287,87.27761 -48.46988,182.2061 -181.68297,182.2061 -133.21308,0 -183.58489,-95.79542 -185.62596,-188.76566 z m 182.93755,86.40686 c 60.16214,-0.96265 86.44805,-54.1879 86.29624,-84.73413 l -1.52792,-307.435709 c -0.32385,-65.161871 -45.21051,-91.284891 -86.05363,-91.161421 -40.84312,0.12347 -84.78676,27.84931 -84.84288,90.497561 l -0.27322,304.981129 c -0.0408,45.50628 26.23927,88.81522 86.40141,87.85257 z M -96.704019,83.466068 V -255.86727 c 89.5494931,3.26473 195.056561,-9.02726 255.509389,26.15355 60.45282,35.18081 74.92305,101.06102 74.92305,150.589892 0,49.528857 -11.45252,94.548053 -31.50429,125.646613 -20.05177,31.098559 -61.21696,49.125851 -93.29493,56.798975 -32.077964,7.67312 -110.618234,5.64769 -110.618234,5.64769 L -3.3706893,422.7994 H -96.704019 Z M 146.86141,-76.488096 C 146.40707,-202.51292 -4.2115169,-182.99789 -4.2115169,-182.99789 l 1.7297276,213.833455 c 0,0 149.7975493,18.701161 149.3431993,-107.323661 z M 305.80808,153.7994 c -0.11006,-136.333378 -0.12019,-272.66704 -0.5121,-409 87.33362,0.0895 262,0.6667 262,0.6667 l 1.51298,69.33333 H 399.29598 V 40.132734 h 135.15917 l -1.42991,65.333336 H 399.29598 v 250.66666 h 169.3333 l 0.25174,66.66667 H 305.96268 c -0.0515,-89.66667 -0.10307,-179.33333 -0.1546,-269 z M 645.96268,84.109028 V -254.58134 l 63.52078,0.55421 193.14582,448.638 0.6744,-449.1448 78.64932,-0.47458 -0.65702,677.14124 -61.97528,-1.89462 -192.64143,-453.846627 -0.71629,456.407917 -80,-0.37007 z" />
</g>
</svg>
